<svg xmlns="http://www.w3.org/2000/svg" viewBox="0 0 100 100"><defs><g id="s"><rect x="18" y="22" width="64" height="56" rx="12"/><rect x="9" y="40" width="11" height="20" rx="3"/><rect x="80" y="40" width="11" height="20" rx="3"/><circle cx="50" cy="10" r="6"/><rect x="47" y="10" width="6" height="14"/></g></defs><use href="#s" fill="#657B90" transform="translate(0 5)"/><rect x="47" y="10" width="6" height="14" fill="#8FA4B8"/><circle cx="50" cy="10" r="6" fill="#FF6B6B"/><rect x="9" y="40" width="11" height="20" rx="3" fill="#7F95AA"/><rect x="80" y="40" width="11" height="20" rx="3" fill="#7F95AA"/><rect x="18" y="22" width="64" height="56" rx="12" fill="#A9BCCE"/><g fill="#FFF"><circle cx="37" cy="45" r="9"/><circle cx="63" cy="45" r="9"/></g><g fill="#1E9BE0"><circle cx="37" cy="45" r="5"/><circle cx="63" cy="45" r="5"/></g><rect x="33" y="60" width="34" height="9" rx="3" fill="#37474F"/><g stroke="#A9BCCE" stroke-width="2"><path d="M42 60v9M50 60v9M58 60v9"/></g></svg>