ISO-10303-21;
HEADER;
FILE_DESCRIPTION(('Open CASCADE Model'),'2;1');
FILE_NAME('Open CASCADE Shape Model','2026-07-24T20:56:46',('Author'),(
    'Open CASCADE'),'Open CASCADE STEP processor 7.9','Open CASCADE 7.9'
  ,'Unknown');
FILE_SCHEMA(('AUTOMOTIVE_DESIGN { 1 0 10303 214 1 1 1 1 }'));
ENDSEC;
DATA;
#1 = APPLICATION_PROTOCOL_DEFINITION('international standard',
  'automotive_design',2000,#2);
#2 = APPLICATION_CONTEXT(
  'core data for automotive mechanical design processes');
#3 = SHAPE_DEFINITION_REPRESENTATION(#4,#10);
#4 = PRODUCT_DEFINITION_SHAPE('','',#5);
#5 = PRODUCT_DEFINITION('design','',#6,#9);
#6 = PRODUCT_DEFINITION_FORMATION('','',#7);
#7 = PRODUCT('Open CASCADE STEP translator 7.9 6',
  'Open CASCADE STEP translator 7.9 6','',(#8));
#8 = PRODUCT_CONTEXT('',#2,'mechanical');
#9 = PRODUCT_DEFINITION_CONTEXT('part definition',#2,'design');
#10 = ADVANCED_BREP_SHAPE_REPRESENTATION('',(#11,#15),#257);
#11 = AXIS2_PLACEMENT_3D('',#12,#13,#14);
#12 = CARTESIAN_POINT('',(0.,0.,0.));
#13 = DIRECTION('',(0.,0.,1.));
#14 = DIRECTION('',(1.,0.,-0.));
#15 = MANIFOLD_SOLID_BREP('',#16);
#16 = CLOSED_SHELL('',(#17,#226,#252));
#17 = ADVANCED_FACE('',(#18),#41,.T.);
#18 = FACE_BOUND('',#19,.T.);
#19 = EDGE_LOOP('',(#20,#113));
#20 = ORIENTED_EDGE('',*,*,#21,.F.);
#21 = EDGE_CURVE('',#22,#24,#26,.T.);
#22 = VERTEX_POINT('',#23);
#23 = CARTESIAN_POINT('',(4.758044506294,-14.,16.48476341935));
#24 = VERTEX_POINT('',#25);
#25 = CARTESIAN_POINT('',(-4.758044506294,-14.,16.48476341935));
#26 = SURFACE_CURVE('',#27,(#40,#92),.PCURVE_S1.);
#27 = B_SPLINE_CURVE_WITH_KNOTS('',6,(#28,#29,#30,#31,#32,#33,#34,#35,
    #36,#37,#38,#39),.UNSPECIFIED.,.F.,.F.,(7,5,7),(0.,0.49712489717,1.)
  ,.UNSPECIFIED.);
#28 = CARTESIAN_POINT('',(4.758061578763,-13.9999959,16.484768057125));
#29 = CARTESIAN_POINT('',(4.013803869645,-14.17873178513,16.28258837592)
  );
#30 = CARTESIAN_POINT('',(3.244268313575,-14.32449057319,16.114291906886
    ));
#31 = CARTESIAN_POINT('',(2.454562322052,-14.43539836043,15.984343269299
    ));
#32 = CARTESIAN_POINT('',(1.650607936618,-14.51022476728,15.896028575576
    ));
#33 = CARTESIAN_POINT('',(0.839111789584,-14.54815046034,15.851259284339
    ));
#34 = CARTESIAN_POINT('',(-0.793106666916,-14.55026034647,
    15.848768654815));
#35 = CARTESIAN_POINT('',(-1.614264466696,-14.51358702669,15.8920595448)
  );
#36 = CARTESIAN_POINT('',(-2.427875134879,-14.43913819107,
    15.979960658503));
#37 = CARTESIAN_POINT('',(-3.226990006532,-14.32776161327,
    16.110514907347));
#38 = CARTESIAN_POINT('',(-4.005478964129,-14.180731038,16.280326892132)
  );
#39 = CARTESIAN_POINT('',(-4.758061578763,-13.9999959,16.484768057125));
#40 = PCURVE('',#41,#77);
#41 = ( BOUNDED_SURFACE() B_SPLINE_SURFACE(2,2,(
    (#42,#43,#44,#45,#46)
    ,(#47,#48,#49,#50,#51)
    ,(#52,#53,#54,#55,#56)
    ,(#57,#58,#59,#60,#61)
    ,(#62,#63,#64,#65,#66)
    ,(#67,#68,#69,#70,#71)
    ,(#72,#73,#74,#75,#76
)),.UNSPECIFIED.,.T.,.F.,.F.) B_SPLINE_SURFACE_WITH_KNOTS((1,2,2,2,2,1),
  (3,2,3),(-2.094395102393,0.,2.094395102393,4.188790204786,
    6.28318530718,8.377580409573),(-1.570796326795,0.,1.570796326795),
.UNSPECIFIED.) GEOMETRIC_REPRESENTATION_ITEM() RATIONAL_B_SPLINE_SURFACE
((
    (1.,0.707106781187,1.,0.707106781187,1.)
    ,(0.5,0.353553390593,0.5,0.353553390593,0.5)
    ,(1.,0.707106781187,1.,0.707106781187,1.)
    ,(0.5,0.353553390593,0.5,0.353553390593,0.5)
    ,(1.,0.707106781187,1.,0.707106781187,1.)
    ,(0.5,0.353553390593,0.5,0.353553390593,0.5)
,(1.,0.707106781187,1.,0.707106781187,1.
))) REPRESENTATION_ITEM('') SURFACE() );
#42 = CARTESIAN_POINT('',(1.132798289211E-15,0.,-3.));
#43 = CARTESIAN_POINT('',(18.5,0.,-3.));
#44 = CARTESIAN_POINT('',(18.5,0.,14.4));
#45 = CARTESIAN_POINT('',(18.5,0.,31.8));
#46 = CARTESIAN_POINT('',(1.132798289211E-15,0.,31.8));
#47 = CARTESIAN_POINT('',(1.132798289211E-15,1.548439848538E-15,-3.));
#48 = CARTESIAN_POINT('',(18.5,25.287941790506,-3.));
#49 = CARTESIAN_POINT('',(18.5,25.287941790506,14.4));
#50 = CARTESIAN_POINT('',(18.5,25.287941790506,31.8));
#51 = CARTESIAN_POINT('',(1.132798289211E-15,1.548439848538E-15,31.8));
#52 = CARTESIAN_POINT('',(-5.663991446057E-16,7.742199242692E-16,-3.));
#53 = CARTESIAN_POINT('',(-9.25,12.643970895253,-3.));
#54 = CARTESIAN_POINT('',(-9.25,12.643970895253,14.4));
#55 = CARTESIAN_POINT('',(-9.25,12.643970895253,31.8));
#56 = CARTESIAN_POINT('',(-5.663991446057E-16,7.742199242692E-16,31.8));
#57 = CARTESIAN_POINT('',(-2.265596578423E-15,2.189649282686E-31,-3.));
#58 = CARTESIAN_POINT('',(-37.,3.57596865351E-15,-3.));
#59 = CARTESIAN_POINT('',(-37.,3.57596865351E-15,14.4));
#60 = CARTESIAN_POINT('',(-37.,3.57596865351E-15,31.8));
#61 = CARTESIAN_POINT('',(-2.265596578423E-15,2.189649282686E-31,31.8));
#62 = CARTESIAN_POINT('',(-5.663991446057E-16,-7.742199242692E-16,-3.));
#63 = CARTESIAN_POINT('',(-9.25,-12.64397089525,-3.));
#64 = CARTESIAN_POINT('',(-9.25,-12.64397089525,14.4));
#65 = CARTESIAN_POINT('',(-9.25,-12.64397089525,31.8));
#66 = CARTESIAN_POINT('',(-5.663991446057E-16,-7.742199242692E-16,31.8)
  );
#67 = CARTESIAN_POINT('',(1.132798289211E-15,-1.548439848538E-15,-3.));
#68 = CARTESIAN_POINT('',(18.5,-25.2879417905,-3.));
#69 = CARTESIAN_POINT('',(18.5,-25.2879417905,14.4));
#70 = CARTESIAN_POINT('',(18.5,-25.2879417905,31.8));
#71 = CARTESIAN_POINT('',(1.132798289211E-15,-1.548439848538E-15,31.8));
#72 = CARTESIAN_POINT('',(1.132798289211E-15,0.,-3.));
#73 = CARTESIAN_POINT('',(18.5,0.,-3.));
#74 = CARTESIAN_POINT('',(18.5,0.,14.4));
#75 = CARTESIAN_POINT('',(18.5,0.,31.8));
#76 = CARTESIAN_POINT('',(1.132798289211E-15,0.,31.8));
#77 = DEFINITIONAL_REPRESENTATION('',(#78),#91);
#78 = B_SPLINE_CURVE_WITH_KNOTS('',6,(#79,#80,#81,#82,#83,#84,#85,#86,
    #87,#88,#89,#90),.UNSPECIFIED.,.F.,.F.,(7,5,7),(0.,0.49712489717,1.)
  ,.UNSPECIFIED.);
#79 = CARTESIAN_POINT('',(4.997425445972,0.130315852579));
#80 = CARTESIAN_POINT('',(4.958369376335,0.117895508004));
#81 = CARTESIAN_POINT('',(4.918502184358,0.107517519973));
#82 = CARTESIAN_POINT('',(4.877828618855,9.947556583416E-02));
#83 = CARTESIAN_POINT('',(4.836375599212,9.39995185574E-02));
#84 = CARTESIAN_POINT('',(4.794206081052,9.122358820114E-02));
#85 = CARTESIAN_POINT('',(4.708182494702,9.106915341637E-02));
#86 = CARTESIAN_POINT('',(4.664291693824,9.37534092304E-02));
#87 = CARTESIAN_POINT('',(4.619894505924,9.920432959507E-02));
#88 = CARTESIAN_POINT('',(4.575080636185,0.107284611714));
#89 = CARTESIAN_POINT('',(4.529910552044,0.117756580057));
#90 = CARTESIAN_POINT('',(4.484423830512,0.130315852579));
#91 = ( GEOMETRIC_REPRESENTATION_CONTEXT(2) 
PARAMETRIC_REPRESENTATION_CONTEXT() REPRESENTATION_CONTEXT('2D SPACE',''
  ) );
#92 = PCURVE('',#93,#98);
#93 = CYLINDRICAL_SURFACE('',#94,18.15);
#94 = AXIS2_PLACEMENT_3D('',#95,#96,#97);
#95 = CARTESIAN_POINT('',(0.,-20.,34.));
#96 = DIRECTION('',(0.,1.,0.));
#97 = DIRECTION('',(0.,-0.,1.));
#98 = DEFINITIONAL_REPRESENTATION('',(#99),#112);
#99 = B_SPLINE_CURVE_WITH_KNOTS('',6,(#100,#101,#102,#103,#104,#105,#106
    ,#107,#108,#109,#110,#111),.UNSPECIFIED.,.F.,.F.,(7,5,7),(0.,
    0.49712489717,1.),.UNSPECIFIED.);
#100 = CARTESIAN_POINT('',(2.876340974867,6.0000041));
#101 = CARTESIAN_POINT('',(2.918833001895,5.821268214861));
#102 = CARTESIAN_POINT('',(2.962179622625,5.675509426804));
#103 = CARTESIAN_POINT('',(3.006183026225,5.564601639564));
#104 = CARTESIAN_POINT('',(3.050646318294,5.489775232714));
#105 = CARTESIAN_POINT('',(3.095360546428,5.451849539659));
#106 = CARTESIAN_POINT('',(3.185290042667,5.449739653522));
#107 = CARTESIAN_POINT('',(3.230529187768,5.486412973307));
#108 = CARTESIAN_POINT('',(3.275515343762,5.56086180893));
#109 = CARTESIAN_POINT('',(3.320032453197,5.672238386725));
#110 = CARTESIAN_POINT('',(3.363877010093,5.819268961998));
#111 = CARTESIAN_POINT('',(3.406844332312,6.0000041));
#112 = ( GEOMETRIC_REPRESENTATION_CONTEXT(2) 
PARAMETRIC_REPRESENTATION_CONTEXT() REPRESENTATION_CONTEXT('2D SPACE',''
  ) );
#113 = ORIENTED_EDGE('',*,*,#114,.F.);
#114 = EDGE_CURVE('',#24,#22,#115,.T.);
#115 = SURFACE_CURVE('',#116,(#149,#185),.PCURVE_S1.);
#116 = B_SPLINE_CURVE_WITH_KNOTS('',7,(#117,#118,#119,#120,#121,#122,
    #123,#124,#125,#126,#127,#128,#129,#130,#131,#132,#133,#134,#135,
    #136,#137,#138,#139,#140,#141,#142,#143,#144,#145,#146,#147,#148),
  .UNSPECIFIED.,.F.,.F.,(8,6,6,6,6,8),(0.,0.192941700027,0.351791177942,
    0.599782221789,0.804721130096,1.),.UNSPECIFIED.);
#117 = CARTESIAN_POINT('',(-5.017507783928,-14.,15.85));
#118 = CARTESIAN_POINT('',(-4.905792279785,-14.,16.191970420295));
#119 = CARTESIAN_POINT('',(-4.763662481035,-14.,16.524063051376));
#120 = CARTESIAN_POINT('',(-4.592535932727,-14.,16.843032977755));
#121 = CARTESIAN_POINT('',(-4.394317003886,-14.,17.146140043193));
#122 = CARTESIAN_POINT('',(-4.171208449513,-14.,17.431043990894));
#123 = CARTESIAN_POINT('',(-3.925621318842,-14.,17.695753687501));
#124 = CARTESIAN_POINT('',(-3.441647221899,-14.,18.138591579142));
#125 = CARTESIAN_POINT('',(-3.209608257822,-14.,18.323796418228));
#126 = CARTESIAN_POINT('',(-2.965462854152,-14.,18.493371923437));
#127 = CARTESIAN_POINT('',(-2.710635016466,-14.,18.64662122358));
#128 = CARTESIAN_POINT('',(-2.446554789633,-14.,18.782991366601));
#129 = CARTESIAN_POINT('',(-2.174643878014,-14.,18.902050741365));
#130 = CARTESIAN_POINT('',(-1.461779177964,-14.,19.161818472357));
#131 = CARTESIAN_POINT('',(-1.011641079316,-14.,19.27716386822));
#132 = CARTESIAN_POINT('',(-0.551130318236,-14.,19.348342646658));
#133 = CARTESIAN_POINT('',(-8.547204058964E-02,-14.,19.374703172782));
#134 = CARTESIAN_POINT('',(0.380124418616,-14.,19.35607052076));
#135 = CARTESIAN_POINT('',(0.840467187224,-14.,19.292725644942));
#136 = CARTESIAN_POINT('',(1.662187249557,-14.,19.096715740745));
#137 = CARTESIAN_POINT('',(2.026857931083,-14.,18.977997655249));
#138 = CARTESIAN_POINT('',(2.38140504211,-14.,18.829683323455));
#139 = CARTESIAN_POINT('',(2.722791674223,-14.,18.652472226362));
#140 = CARTESIAN_POINT('',(3.047945314914,-14.,18.447363567927));
#141 = CARTESIAN_POINT('',(3.353797107019,-14.,18.215725367309));
#142 = CARTESIAN_POINT('',(3.907530587939,-14.,17.71515663002));
#143 = CARTESIAN_POINT('',(4.157527207029,-14.,17.448443014458));
#144 = CARTESIAN_POINT('',(4.384608206904,-14.,17.160943955959));
#145 = CARTESIAN_POINT('',(4.586255346271,-14.,16.854708937893));
#146 = CARTESIAN_POINT('',(4.760192265015,-14.,16.532163261125));
#147 = CARTESIAN_POINT('',(4.904431091601,-14.,16.19613713018));
#148 = CARTESIAN_POINT('',(5.017507783928,-14.,15.85));
#149 = PCURVE('',#41,#150);
#150 = DEFINITIONAL_REPRESENTATION('',(#151),#184);
#151 = B_SPLINE_CURVE_WITH_KNOTS('',7,(#152,#153,#154,#155,#156,#157,
    #158,#159,#160,#161,#162,#163,#164,#165,#166,#167,#168,#169,#170,
    #171,#172,#173,#174,#175,#176,#177,#178,#179,#180,#181,#182,#183),
  .UNSPECIFIED.,.F.,.F.,(8,6,6,6,6,8),(0.,0.192941700027,0.351791177942,
    0.599782221789,0.804721130096,1.),.UNSPECIFIED.);
#152 = CARTESIAN_POINT('',(4.469938799184,9.114550460641E-02));
#153 = CARTESIAN_POINT('',(4.476170207543,0.112349841067));
#154 = CARTESIAN_POINT('',(4.484104195546,0.132803838039));
#155 = CARTESIAN_POINT('',(4.493667047091,0.15234266587));
#156 = CARTESIAN_POINT('',(4.504758927368,0.170833443587));
#157 = CARTESIAN_POINT('',(4.517261048098,0.188162607909));
#158 = CARTESIAN_POINT('',(4.531038399882,0.204230406289));
#159 = CARTESIAN_POINT('',(4.558204979471,0.231073269191));
#160 = CARTESIAN_POINT('',(4.571235306188,0.242284449835));
#161 = CARTESIAN_POINT('',(4.584947665801,0.252541475623));
#162 = CARTESIAN_POINT('',(4.599256625478,0.261807498518));
#163 = CARTESIAN_POINT('',(4.614073714044,0.270051939832));
#164 = CARTESIAN_POINT('',(4.62930874334,0.277249838128));
#165 = CARTESIAN_POINT('',(4.669167410686,0.29295536755));
#166 = CARTESIAN_POINT('',(4.694259098745,0.299930130019));
#167 = CARTESIAN_POINT('',(4.719809789104,0.304236944174));
#168 = CARTESIAN_POINT('',(4.745475616899,0.305832265354));
#169 = CARTESIAN_POINT('',(4.770920417588,0.304704122343));
#170 = CARTESIAN_POINT('',(4.795827966233,0.30087221337));
#171 = CARTESIAN_POINT('',(4.83981420738,0.289019115792));
#172 = CARTESIAN_POINT('',(4.859153359362,0.281840926827));
#173 = CARTESIAN_POINT('',(4.877763453094,0.272874486183));
#174 = CARTESIAN_POINT('',(4.89548905376,0.262162390904));
#175 = CARTESIAN_POINT('',(4.912188331682,0.249762012288));
#176 = CARTESIAN_POINT('',(4.927733770562,0.235747000859));
#177 = CARTESIAN_POINT('',(4.955613566698,0.205408082618));
#178 = CARTESIAN_POINT('',(4.968067866525,0.189220799569));
#179 = CARTESIAN_POINT('',(4.979266583485,0.171736519584));
#180 = CARTESIAN_POINT('',(4.989121595303,0.153057804947));
#181 = CARTESIAN_POINT('',(4.997559951827,0.133302737226));
#182 = CARTESIAN_POINT('',(5.004519472152,0.112608203525));
#183 = CARTESIAN_POINT('',(5.00995516477,9.114550460641E-02));
#184 = ( GEOMETRIC_REPRESENTATION_CONTEXT(2) 
PARAMETRIC_REPRESENTATION_CONTEXT() REPRESENTATION_CONTEXT('2D SPACE',''
  ) );
#185 = PCURVE('',#186,#191);
#186 = PLANE('',#187);
#187 = AXIS2_PLACEMENT_3D('',#188,#189,#190);
#188 = CARTESIAN_POINT('',(0.,-14.,34.));
#189 = DIRECTION('',(0.,1.,0.));
#190 = DIRECTION('',(0.,-0.,1.));
#191 = DEFINITIONAL_REPRESENTATION('',(#192),#225);
#192 = B_SPLINE_CURVE_WITH_KNOTS('',7,(#193,#194,#195,#196,#197,#198,
    #199,#200,#201,#202,#203,#204,#205,#206,#207,#208,#209,#210,#211,
    #212,#213,#214,#215,#216,#217,#218,#219,#220,#221,#222,#223,#224),
  .UNSPECIFIED.,.F.,.F.,(8,6,6,6,6,8),(0.,0.192941700027,0.351791177942,
    0.599782221789,0.804721130096,1.),.UNSPECIFIED.);
#193 = CARTESIAN_POINT('',(-18.15,-5.017507783928));
#194 = CARTESIAN_POINT('',(-17.8080295797,-4.905792279785));
#195 = CARTESIAN_POINT('',(-17.47593694862,-4.763662481035));
#196 = CARTESIAN_POINT('',(-17.15696702224,-4.592535932727));
#197 = CARTESIAN_POINT('',(-16.8538599568,-4.394317003886));
#198 = CARTESIAN_POINT('',(-16.5689560091,-4.171208449513));
#199 = CARTESIAN_POINT('',(-16.30424631249,-3.925621318842));
#200 = CARTESIAN_POINT('',(-15.86140842085,-3.441647221899));
#201 = CARTESIAN_POINT('',(-15.67620358177,-3.209608257822));
#202 = CARTESIAN_POINT('',(-15.50662807656,-2.965462854152));
#203 = CARTESIAN_POINT('',(-15.35337877642,-2.710635016466));
#204 = CARTESIAN_POINT('',(-15.21700863339,-2.446554789633));
#205 = CARTESIAN_POINT('',(-15.09794925863,-2.174643878014));
#206 = CARTESIAN_POINT('',(-14.83818152764,-1.461779177964));
#207 = CARTESIAN_POINT('',(-14.72283613178,-1.011641079316));
#208 = CARTESIAN_POINT('',(-14.65165735334,-0.551130318236));
#209 = CARTESIAN_POINT('',(-14.62529682721,-8.547204058964E-02));
#210 = CARTESIAN_POINT('',(-14.64392947924,0.380124418616));
#211 = CARTESIAN_POINT('',(-14.70727435505,0.840467187224));
#212 = CARTESIAN_POINT('',(-14.90328425925,1.662187249557));
#213 = CARTESIAN_POINT('',(-15.02200234475,2.026857931083));
#214 = CARTESIAN_POINT('',(-15.17031667654,2.38140504211));
#215 = CARTESIAN_POINT('',(-15.34752777363,2.722791674223));
#216 = CARTESIAN_POINT('',(-15.55263643207,3.047945314914));
#217 = CARTESIAN_POINT('',(-15.78427463269,3.353797107019));
#218 = CARTESIAN_POINT('',(-16.28484336998,3.907530587939));
#219 = CARTESIAN_POINT('',(-16.55155698554,4.157527207029));
#220 = CARTESIAN_POINT('',(-16.83905604404,4.384608206904));
#221 = CARTESIAN_POINT('',(-17.1452910621,4.586255346271));
#222 = CARTESIAN_POINT('',(-17.46783673887,4.760192265015));
#223 = CARTESIAN_POINT('',(-17.80386286982,4.904431091601));
#224 = CARTESIAN_POINT('',(-18.15,5.017507783928));
#225 = ( GEOMETRIC_REPRESENTATION_CONTEXT(2) 
PARAMETRIC_REPRESENTATION_CONTEXT() REPRESENTATION_CONTEXT('2D SPACE',''
  ) );
#226 = ADVANCED_FACE('',(#227),#93,.T.);
#227 = FACE_BOUND('',#228,.T.);
#228 = EDGE_LOOP('',(#229,#251));
#229 = ORIENTED_EDGE('',*,*,#230,.F.);
#230 = EDGE_CURVE('',#22,#24,#231,.T.);
#231 = SURFACE_CURVE('',#232,(#237,#244),.PCURVE_S1.);
#232 = CIRCLE('',#233,18.15);
#233 = AXIS2_PLACEMENT_3D('',#234,#235,#236);
#234 = CARTESIAN_POINT('',(0.,-14.,34.));
#235 = DIRECTION('',(0.,1.,0.));
#236 = DIRECTION('',(0.,-0.,1.));
#237 = PCURVE('',#93,#238);
#238 = DEFINITIONAL_REPRESENTATION('',(#239),#243);
#239 = LINE('',#240,#241);
#240 = CARTESIAN_POINT('',(0.,6.));
#241 = VECTOR('',#242,1.);
#242 = DIRECTION('',(1.,0.));
#243 = ( GEOMETRIC_REPRESENTATION_CONTEXT(2) 
PARAMETRIC_REPRESENTATION_CONTEXT() REPRESENTATION_CONTEXT('2D SPACE',''
  ) );
#244 = PCURVE('',#186,#245);
#245 = DEFINITIONAL_REPRESENTATION('',(#246),#250);
#246 = CIRCLE('',#247,18.15);
#247 = AXIS2_PLACEMENT_2D('',#248,#249);
#248 = CARTESIAN_POINT('',(0.,0.));
#249 = DIRECTION('',(1.,0.));
#250 = ( GEOMETRIC_REPRESENTATION_CONTEXT(2) 
PARAMETRIC_REPRESENTATION_CONTEXT() REPRESENTATION_CONTEXT('2D SPACE',''
  ) );
#251 = ORIENTED_EDGE('',*,*,#21,.T.);
#252 = ADVANCED_FACE('',(#253),#186,.T.);
#253 = FACE_BOUND('',#254,.T.);
#254 = EDGE_LOOP('',(#255,#256));
#255 = ORIENTED_EDGE('',*,*,#114,.T.);
#256 = ORIENTED_EDGE('',*,*,#230,.T.);
#257 = ( GEOMETRIC_REPRESENTATION_CONTEXT(3) 
GLOBAL_UNCERTAINTY_ASSIGNED_CONTEXT((#261)) GLOBAL_UNIT_ASSIGNED_CONTEXT
((#258,#259,#260)) REPRESENTATION_CONTEXT('Context #1',
  '3D Context with UNIT and UNCERTAINTY') );
#258 = ( LENGTH_UNIT() NAMED_UNIT(*) SI_UNIT(.MILLI.,.METRE.) );
#259 = ( NAMED_UNIT(*) PLANE_ANGLE_UNIT() SI_UNIT($,.RADIAN.) );
#260 = ( NAMED_UNIT(*) SI_UNIT($,.STERADIAN.) SOLID_ANGLE_UNIT() );
#261 = UNCERTAINTY_MEASURE_WITH_UNIT(LENGTH_MEASURE(5.E-06),#258,
  'distance_accuracy_value','confusion accuracy');
#262 = PRODUCT_RELATED_PRODUCT_CATEGORY('part',$,(#7));
ENDSEC;
END-ISO-10303-21;
